<?xml version="1.0" encoding="UTF-8" standalone="no"?>
<!DOCTYPE svg PUBLIC "-//W3C//DTD SVG 20010904//EN"
              "http://www.w3.org/TR/2001/REC-SVG-20010904/DTD/svg10.dtd">

<svg xmlns="http://www.w3.org/2000/svg"
     width="6.4in" height="3.6in"
     viewBox="0 0 1920 1080">
  <path id="Selección"
        fill="none" stroke="black" stroke-width="1"
        d="M 925.00,3.14
           C 925.00,3.14 963.00,3.14 963.00,3.14
             963.00,3.14 987.00,3.14 987.00,3.14
             987.00,3.14 999.00,3.91 999.00,3.91
             1021.61,5.46 1043.73,8.15 1066.00,12.60
             1205.01,40.41 1325.82,120.66 1405.66,238.00
             1438.45,286.19 1462.83,339.90 1478.42,396.00
             1488.01,430.48 1493.65,465.36 1496.09,501.00
             1496.09,501.00 1497.00,511.00 1497.00,511.00
             1497.00,511.00 1497.00,567.00 1497.00,567.00
             1497.00,567.00 1496.09,579.00 1496.09,579.00
             1492.90,625.67 1484.02,671.72 1468.66,716.00
             1413.42,875.16 1284.35,1002.82 1123.00,1052.98
             1082.48,1065.57 1041.27,1073.20 999.00,1076.09
             999.00,1076.09 987.00,1077.00 987.00,1077.00
             987.00,1077.00 931.00,1077.00 931.00,1077.00
             931.00,1077.00 921.00,1076.09 921.00,1076.09
             871.79,1072.72 823.41,1063.03 777.00,1046.05
             713.37,1022.78 655.99,989.51 605.00,944.72
             555.23,900.99 515.76,850.16 484.31,792.00
             457.31,742.08 437.00,680.17 428.73,624.00
             428.73,624.00 423.91,579.00 423.91,579.00
             423.91,579.00 423.00,567.00 423.00,567.00
             423.00,567.00 423.00,511.00 423.00,511.00
             423.00,511.00 423.91,501.00 423.91,501.00
             423.91,501.00 428.58,457.00 428.58,457.00
             435.50,412.37 446.94,371.67 464.42,330.00
             523.27,189.77 640.57,81.12 784.00,31.34
             816.09,20.21 851.33,11.82 885.00,7.28
             885.00,7.28 913.00,4.17 913.00,4.17
             913.00,4.17 925.00,3.14 925.00,3.14 Z
           M 932.00,23.14
           C 932.00,23.14 919.00,24.17 919.00,24.17
             919.00,24.17 878.00,29.27 878.00,29.27
             845.06,34.36 811.27,43.59 780.00,55.05
             653.74,101.34 546.41,200.80 490.31,323.00
             469.46,368.40 454.76,418.53 447.87,468.00
             447.87,468.00 443.91,507.00 443.91,507.00
             443.91,507.00 443.00,519.00 443.00,519.00
             443.00,519.00 443.00,563.00 443.00,563.00
             443.00,563.00 443.91,573.00 443.91,573.00
             445.20,591.84 447.22,610.37 450.58,629.00
             463.22,699.10 488.76,765.61 528.35,825.00
             566.45,882.14 611.83,927.41 668.00,966.72
             707.84,994.61 754.59,1017.45 801.00,1032.02
             842.39,1045.02 883.74,1053.13 927.00,1056.09
             927.00,1056.09 937.00,1057.00 937.00,1057.00
             937.00,1057.00 981.00,1057.00 981.00,1057.00
             981.00,1057.00 993.00,1056.09 993.00,1056.09
             993.00,1056.09 1032.00,1052.13 1032.00,1052.13
             1093.08,1043.63 1146.07,1025.41 1201.00,997.75
             1251.46,972.35 1305.52,928.83 1343.17,887.00
             1378.10,848.18 1407.87,804.54 1429.69,757.00
             1450.54,711.60 1465.24,661.47 1472.13,612.00
             1472.13,612.00 1476.09,573.00 1476.09,573.00
             1476.09,573.00 1477.00,561.00 1477.00,561.00
             1477.00,561.00 1477.00,519.00 1477.00,519.00
             1477.00,519.00 1476.09,507.00 1476.09,507.00
             1474.80,488.16 1472.78,469.63 1469.42,451.00
             1457.82,386.67 1435.20,324.60 1400.58,269.00
             1370.04,219.97 1331.69,176.04 1287.00,139.42
             1234.96,96.79 1180.74,68.13 1117.00,47.33
             1076.77,34.20 1035.13,26.79 993.00,23.91
             993.00,23.91 983.00,23.14 983.00,23.14
             983.00,23.14 932.00,23.14 932.00,23.14 Z" />
</svg>
