<?xml version="1.0" encoding="UTF-8" standalone="no"?>
<!DOCTYPE svg PUBLIC "-//W3C//DTD SVG 20010904//EN"
              "http://www.w3.org/TR/2001/REC-SVG-20010904/DTD/svg10.dtd">

<svg xmlns="http://www.w3.org/2000/svg"
     width="6.4in" height="3.6in"
     viewBox="0 0 1920 1080">
  <path id="Hexagram2"
        fill="none" stroke="black" stroke-width="1"
        d="M 488.00,269.00
           C 492.53,267.76 502.51,268.33 507.67,267.80
             507.67,267.80 544.33,267.80 544.33,267.80
             544.33,267.80 662.97,267.80 662.97,267.80
             662.97,267.80 719.00,267.80 719.00,267.80
             719.00,267.80 854.00,267.80 854.00,267.80
             854.00,267.80 1100.00,267.80 1100.00,267.80
             1100.00,267.80 1187.00,267.80 1187.00,267.80
             1187.00,267.80 1220.00,267.80 1220.00,267.80
             1220.00,267.80 1237.84,267.80 1237.84,267.80
             1237.84,267.80 1281.00,267.80 1281.00,267.80
             1281.00,267.80 1373.53,267.80 1373.53,267.80
             1373.53,267.80 1404.73,267.80 1404.73,267.80
             1404.73,267.80 1420.26,267.80 1420.26,267.80
             1431.22,267.53 1429.79,271.80 1425.15,280.00
             1425.15,280.00 1411.85,303.00 1411.85,303.00
             1411.85,303.00 1349.58,411.00 1349.58,411.00
             1349.58,411.00 1217.87,638.15 1217.87,638.15
             1217.87,638.15 1096.01,849.00 1096.01,849.00
             1096.01,849.00 994.42,1025.00 994.42,1025.00
             994.42,1025.00 970.15,1067.00 970.15,1067.00
             967.77,1071.18 964.48,1079.90 959.00,1079.90
             953.93,1079.90 951.26,1072.83 949.01,1069.00
             949.01,1069.00 929.42,1035.00 929.42,1035.00
             929.42,1035.00 845.72,890.00 845.72,890.00
             845.72,890.00 754.42,732.00 754.42,732.00
             754.42,732.00 605.58,474.00 605.58,474.00
             605.58,474.00 524.72,334.00 524.72,334.00
             524.72,334.00 499.85,291.00 499.85,291.00
             496.66,285.41 489.73,274.46 488.00,269.00 Z
           M 1417.00,276.00
           C 1417.00,276.00 501.00,277.00 501.00,277.00
             501.00,277.00 528.58,324.00 528.58,324.00
             528.58,324.00 587.58,426.00 587.58,426.00
             587.58,426.00 762.58,729.00 762.58,729.00
             762.58,729.00 893.58,956.00 893.58,956.00
             893.58,956.00 935.15,1028.00 935.15,1028.00
             935.15,1028.00 959.00,1068.00 959.00,1068.00
             959.00,1068.00 990.53,1014.57 990.53,1014.57
             990.53,1014.57 1002.00,996.00 1002.00,996.00
             1002.00,996.00 1001.00,994.00 1001.00,994.00
             1001.00,994.00 1013.00,977.00 1013.00,977.00
             1013.00,977.00 1012.00,975.00 1012.00,975.00
             1012.00,975.00 1028.00,951.00 1028.00,951.00
             1028.00,951.00 1027.00,949.00 1027.00,949.00
             1030.87,946.48 1035.08,937.39 1037.47,933.05
             1037.47,933.05 1056.59,900.25 1056.59,900.25
             1056.59,900.25 1090.60,841.28 1090.60,841.28
             1090.60,841.28 1134.28,766.00 1134.28,766.00
             1134.28,766.00 1247.58,570.00 1247.58,570.00
             1247.58,570.00 1324.93,436.17 1324.93,436.17
             1324.93,436.17 1387.85,328.00 1387.85,328.00
             1387.85,328.00 1405.80,297.00 1405.80,297.00
             1409.06,291.52 1415.20,281.70 1417.00,276.00 Z" />
</svg>
