<?xml version="1.0" encoding="UTF-8" standalone="no"?>
<!DOCTYPE svg PUBLIC "-//W3C//DTD SVG 20010904//EN"
              "http://www.w3.org/TR/2001/REC-SVG-20010904/DTD/svg10.dtd">

<svg xmlns="http://www.w3.org/2000/svg"
     width="6.4in" height="3.6in"
     viewBox="0 0 1920 1080">
  <path id="Hexagram1"
        fill="none" stroke="black" stroke-width="1"
        d="M 490.00,813.00
           C 490.00,813.00 503.72,788.00 503.72,788.00
             503.72,788.00 532.58,738.00 532.58,738.00
             532.58,738.00 612.58,599.00 612.58,599.00
             612.58,599.00 768.58,328.00 768.58,328.00
             768.58,328.00 847.40,191.00 847.40,191.00
             847.40,191.00 885.85,124.00 885.85,124.00
             885.85,124.00 930.85,46.00 930.85,46.00
             930.85,46.00 951.00,11.00 951.00,11.00
             952.77,7.92 955.98,0.27 960.00,0.27
             964.04,0.27 967.20,7.92 969.01,11.00
             969.01,11.00 988.60,45.00 988.60,45.00
             988.60,45.00 1021.42,102.00 1021.42,102.00
             1021.42,102.00 1072.72,191.00 1072.72,191.00
             1072.72,191.00 1131.58,293.00 1131.58,293.00
             1131.58,293.00 1319.85,620.00 1319.85,620.00
             1319.85,620.00 1393.01,747.00 1393.01,747.00
             1393.01,747.00 1417.85,790.00 1417.85,790.00
             1421.40,796.21 1428.13,806.60 1430.00,813.00
             1430.00,813.00 490.00,813.00 490.00,813.00 Z
           M 961.00,11.00
           C 961.00,11.00 959.00,11.00 959.00,11.00
             959.00,11.00 925.42,70.00 925.42,70.00
             925.42,70.00 853.42,195.00 853.42,195.00
             853.42,195.00 626.15,590.00 626.15,590.00
             626.15,590.00 544.99,731.00 544.99,731.00
             544.99,731.00 516.15,781.00 516.15,781.00
             516.15,781.00 502.00,807.00 502.00,807.00
             502.00,807.00 537.00,807.00 537.00,807.00
             537.00,807.00 554.00,806.00 554.00,806.00
             554.00,806.00 1418.00,806.00 1418.00,806.00
             1418.00,806.00 1404.85,782.00 1404.85,782.00
             1404.85,782.00 1378.28,736.00 1378.28,736.00
             1378.28,736.00 1292.42,587.00 1292.42,587.00
             1292.42,587.00 1066.15,194.00 1066.15,194.00
             1066.15,194.00 997.58,75.00 997.58,75.00
             997.58,75.00 978.58,42.00 978.58,42.00
             978.58,42.00 961.00,11.00 961.00,11.00 Z" />
</svg>
